<svg width="100%" height="100%" viewBox="0 0 1241 296" version="1.1" xmlns="http://www.w3.org/2000/svg" xmlns:xlink="http://www.w3.org/1999/xlink" xml:space="preserve" xmlns:serif="http://www.serif.com/" style="fill-rule:evenodd;clip-rule:evenodd;stroke-linejoin:round;stroke-miterlimit:2;">
    <g transform="matrix(1,0,0,1,-5726.84,-837.152)">
        <g transform="matrix(1,0,0,1,-105.032,8.86321)">
            <g transform="matrix(0.0224405,0,-0.0500697,0.500697,6853.64,659.14)">
                <rect x="3906.3" y="337.828" width="2631.63" height="589.729" style="fill:rgb(1,86,255);fill-opacity:0.7;"/>
            </g>
        </g>
        <g transform="matrix(1,0,0,1,-105.032,8.86321)">
            <g transform="matrix(0.0224405,0,0.0500697,0.500697,6878.87,659.14)">
                <rect x="3906.3" y="337.828" width="2631.63" height="589.729" style="fill:rgb(1,1,255);fill-opacity:0.7;"/>
            </g>
        </g>
        <g transform="matrix(1,0,0,1,-105.032,8.86321)">
            <g transform="matrix(1.37408e-18,0.0224405,-0.200279,1.22635e-17,7110.16,740.63)">
                <rect x="3906.3" y="337.828" width="2631.63" height="589.729" style="fill:rgb(1,43,255);fill-opacity:0.7;"/>
            </g>
        </g>
        <g transform="matrix(1,0,0,1,-105.032,8.86321)">
            <g transform="matrix(1.37408e-18,0.0224405,-0.260362,1.59426e-17,7148.17,917.795)">
                <rect x="3906.3" y="337.828" width="2631.63" height="589.729" style="fill:rgb(43,1,255);fill-opacity:0.7;"/>
            </g>
        </g>
        <g transform="matrix(1,0,0,1,-105.032,8.86321)">
            <g transform="matrix(0.0224405,0,0,0.500697,6630.04,659.14)">
                <rect x="3906.3" y="337.828" width="2631.63" height="589.729" style="fill:rgb(1,255,213);fill-opacity:0.7;"/>
            </g>
        </g>
        <g transform="matrix(1,0,0,1,-105.032,8.86321)">
            <g transform="matrix(-0.0224405,1.09927e-18,-0.100139,-0.300418,7016.35,1225.05)">
                <rect x="3906.3" y="337.828" width="2631.63" height="589.729" style="fill:rgb(1,128,255);fill-opacity:0.7;"/>
            </g>
        </g>
        <g transform="matrix(1,0,0,1,-105.032,8.86321)">
            <g transform="matrix(0.0224405,0,0,0.300418,6748.15,726.799)">
                <rect x="3906.3" y="337.828" width="2631.63" height="589.729" style="fill:rgb(1,213,255);fill-opacity:0.7;"/>
            </g>
        </g>
        <g transform="matrix(1,0,0,1,-105.032,8.86321)">
            <g transform="matrix(1.37408e-18,0.0224405,-0.300418,1.83953e-17,6996.35,740.63)">
                <rect x="3906.3" y="337.828" width="2631.63" height="589.729" style="fill:rgb(1,255,255);fill-opacity:0.7;"/>
            </g>
        </g>
        <g transform="matrix(1,0,0,1,-105.032,8.86321)">
            <g transform="matrix(1.37408e-18,0.0224405,-0.300418,1.83953e-17,6996.35,858.74)">
                <rect x="3906.3" y="337.828" width="2631.63" height="589.729" style="fill:rgb(1,170,255);fill-opacity:0.7;"/>
            </g>
        </g>
        <g transform="matrix(1,0,0,1,-105.032,8.86321)">
            <g transform="matrix(0.0224405,0,0,0.500697,6511.93,659.14)">
                <rect x="3906.3" y="337.828" width="2631.63" height="589.729" style="fill:rgb(1,255,170);fill-opacity:0.7;"/>
            </g>
        </g>
        <g transform="matrix(1,0,0,1,-105.032,8.86321)">
            <g transform="matrix(1.37408e-18,0.0224405,-0.300418,1.83953e-17,6819.19,740.63)">
                <rect x="3906.3" y="337.828" width="2631.63" height="589.729" style="fill:rgb(1,255,128);fill-opacity:0.7;"/>
            </g>
        </g>
        <g transform="matrix(1,0,0,1,-105.032,8.86321)">
            <g transform="matrix(1.37408e-18,0.0224405,-0.300418,1.83953e-17,6642.02,740.63)">
                <rect x="3906.3" y="337.828" width="2631.63" height="589.729" style="fill:rgb(1,255,1);fill-opacity:0.7;"/>
            </g>
        </g>
        <g transform="matrix(1,0,0,1,-105.032,8.86321)">
            <g transform="matrix(1.37408e-18,0.0224405,-0.300418,1.83953e-17,6642.02,858.74)">
                <rect x="3906.3" y="337.828" width="2631.63" height="589.729" style="fill:rgb(1,255,43);fill-opacity:0.7;"/>
            </g>
        </g>
        <g transform="matrix(1,0,0,1,-105.032,8.86321)">
            <g transform="matrix(1.37408e-18,0.0224405,-0.300418,1.83953e-17,6642.02,976.85)">
                <rect x="3906.3" y="337.828" width="2631.63" height="589.729" style="fill:rgb(1,255,86);fill-opacity:0.7;"/>
            </g>
        </g>
        <g transform="matrix(1,0,0,1,-105.032,8.86321)">
            <g transform="matrix(-0.0224405,0,0.0500697,-0.500697,6404.58,1292.71)">
                <rect x="3906.3" y="337.828" width="2631.63" height="589.729" style="fill:rgb(86,255,1);fill-opacity:0.7;"/>
            </g>
        </g>
        <g transform="matrix(1,0,0,1,-105.032,8.86321)">
            <g transform="matrix(-0.0224405,0,-0.0500697,-0.500697,6379.36,1292.71)">
                <rect x="3906.3" y="337.828" width="2631.63" height="589.729" style="fill:rgb(170,255,1);fill-opacity:0.7;"/>
            </g>
        </g>
        <g transform="matrix(1,0,0,1,-105.032,8.86321)">
            <g transform="matrix(-6.2921e-19,-0.0224405,0.200279,-1.72495e-17,6148.07,1211.22)">
                <rect x="3906.3" y="337.828" width="2631.63" height="589.729" style="fill:rgb(128,255,1);fill-opacity:0.7;"/>
            </g>
        </g>
        <g transform="matrix(1,0,0,1,-105.032,8.86321)">
            <g transform="matrix(0.0224405,0,0,0.500697,6275.71,659.14)">
                <rect x="3906.3" y="337.828" width="2631.63" height="589.729" style="fill:rgb(43,255,1);fill-opacity:0.7;"/>
            </g>
        </g>
        <g transform="matrix(1,0,0,1,-105.032,8.86321)">
            <g transform="matrix(0.0224405,0,-0.0500697,0.500697,5967.82,659.14)">
                <rect x="3906.3" y="337.828" width="2631.63" height="589.729" style="fill:rgb(255,170,1);fill-opacity:0.7;"/>
            </g>
        </g>
        <g transform="matrix(1,0,0,1,-105.032,8.86321)">
            <g transform="matrix(0.0224405,0,0.0500697,0.500697,5993.04,659.14)">
                <rect x="3906.3" y="337.828" width="2631.63" height="589.729" style="fill:rgb(255,255,1);fill-opacity:0.7;"/>
            </g>
        </g>
        <g transform="matrix(1,0,0,1,-105.032,8.86321)">
            <g transform="matrix(1.37408e-18,0.0224405,-0.200279,1.22635e-17,6224.33,740.63)">
                <rect x="3906.3" y="337.828" width="2631.63" height="589.729" style="fill:rgb(255,213,1);fill-opacity:0.7;"/>
            </g>
        </g>
        <g transform="matrix(1,0,0,1,-105.032,8.86321)">
            <g transform="matrix(1.37408e-18,0.0224405,-0.25992,1.59155e-17,6262.07,917.795)">
                <rect x="3906.3" y="337.828" width="2631.63" height="589.729" style="fill:rgb(213,255,1);fill-opacity:0.7;"/>
            </g>
        </g>
        <g transform="matrix(1,0,0,1,-105.032,8.86321)">
            <g transform="matrix(0.0224405,0,0,0.500697,5744.21,659.14)">
                <rect x="3906.3" y="337.828" width="2631.63" height="589.729" style="fill:rgb(255,0,0);fill-opacity:0.7;"/>
            </g>
        </g>
        <g transform="matrix(1,0,0,1,-105.032,8.86321)">
            <g transform="matrix(0.0224405,0,0,0.300418,5862.32,726.799)">
                <rect x="3906.3" y="337.828" width="2631.63" height="589.729" style="fill:rgb(255,85,0);fill-opacity:0.7;"/>
            </g>
        </g>
        <g transform="matrix(1,0,0,1,-105.032,8.86321)">
            <g transform="matrix(1.37408e-18,0.0224405,-0.300418,1.83953e-17,6110.52,740.63)">
                <rect x="3906.3" y="337.828" width="2631.63" height="589.729" style="fill:rgb(255,43,0);fill-opacity:0.7;"/>
            </g>
        </g>
        <g transform="matrix(1,0,0,1,-105.032,8.86321)">
            <g transform="matrix(1.37408e-18,0.0224405,-0.300418,1.83953e-17,6110.52,858.74)">
                <rect x="3906.3" y="337.828" width="2631.63" height="589.729" style="fill:rgb(255,128,0);fill-opacity:0.7;"/>
            </g>
        </g>
    </g>
</svg>
