<?xml version="1.0" encoding="UTF-8" standalone="no"?>
<!DOCTYPE svg PUBLIC "-//W3C//DTD SVG 1.1//EN" "http://www.w3.org/Graphics/SVG/1.1/DTD/svg11.dtd">
<svg width="100%" height="100%" viewBox="0 0 532 296" version="1.1" xmlns="http://www.w3.org/2000/svg" xmlns:xlink="http://www.w3.org/1999/xlink" xml:space="preserve" xmlns:serif="http://www.serif.com/" style="fill-rule:evenodd;clip-rule:evenodd;stroke-linejoin:round;stroke-miterlimit:2;">
    <g transform="matrix(1,0,0,1,-6218.27,-1696.6)">
        <g transform="matrix(1,0,0,1,-105.032,8.86321)">
            <g transform="matrix(-1.37408e-18,0.0224405,0.300418,1.83953e-17,6576.15,1600.08)">
                <rect x="3906.3" y="337.828" width="2631.63" height="589.729" style="fill:rgb(255,1,43);fill-opacity:0.7;"/>
            </g>
        </g>
        <g transform="matrix(1,0,0,1,-105.032,8.86321)">
            <g transform="matrix(-0.0224405,0,1.2326e-32,0.500697,6883.41,1518.59)">
                <rect x="3906.3" y="337.828" width="2631.63" height="589.729" style="fill:rgb(255,1,1);fill-opacity:0.7;"/>
            </g>
        </g>
        <g transform="matrix(1,0,0,1,-105.032,8.86321)">
            <g transform="matrix(0.0224405,0,0,0.500697,6412.81,1518.59)">
                <rect x="3906.3" y="337.828" width="2631.63" height="589.729" style="fill:rgb(255,1,255);fill-opacity:0.7;"/>
            </g>
        </g>
        <g transform="matrix(1,0,0,1,-105.032,8.86321)">
            <g transform="matrix(-0.0224405,1.20198e-18,-0.100139,-0.300418,6799.13,2084.51)">
                <rect x="3906.3" y="337.828" width="2631.63" height="589.729" style="fill:rgb(255,1,86);fill-opacity:0.7;"/>
            </g>
        </g>
        <g transform="matrix(1,0,0,1,-105.032,8.86321)">
            <g transform="matrix(0.0224405,0,0,0.300418,6530.92,1586.25)">
                <rect x="3906.3" y="337.828" width="2631.63" height="589.729" style="fill:rgb(255,1,170);fill-opacity:0.7;"/>
            </g>
        </g>
        <g transform="matrix(1,0,0,1,-105.032,8.86321)">
            <g transform="matrix(1.37408e-18,0.0224405,-0.300418,1.83953e-17,6779.13,1600.08)">
                <rect x="3906.3" y="337.828" width="2631.63" height="589.729" style="fill:rgb(255,1,213);fill-opacity:0.7;"/>
            </g>
        </g>
        <g transform="matrix(1,0,0,1,-105.032,8.86321)">
            <g transform="matrix(1.37408e-18,0.0224405,-0.300418,1.83953e-17,6779.13,1718.19)">
                <rect x="3906.3" y="337.828" width="2631.63" height="589.729" style="fill:rgb(255,1,128);fill-opacity:0.7;"/>
            </g>
        </g>
        <g transform="matrix(1,0,0,1,-105.032,8.86321)">
            <g transform="matrix(-0.0224405,0,0.0500697,0.500697,6541.69,1518.59)">
                <rect x="3906.3" y="337.828" width="2631.63" height="589.729" style="fill:rgb(170,1,255);fill-opacity:0.7;"/>
            </g>
        </g>
        <g transform="matrix(1,0,0,1,-105.032,8.86321)">
            <g transform="matrix(-0.0224405,0,-0.0500697,0.500697,6516.46,1518.59)">
                <rect x="3906.3" y="337.828" width="2631.63" height="589.729" style="fill:rgb(86,1,255);fill-opacity:0.7;"/>
            </g>
        </g>
        <g transform="matrix(1,0,0,1,-105.032,8.86321)">
            <g transform="matrix(-1.37408e-18,0.0224405,0.200279,1.22635e-17,6285.17,1600.08)">
                <rect x="3906.3" y="337.828" width="2631.63" height="589.729" style="fill:rgb(128,1,255);fill-opacity:0.7;"/>
            </g>
        </g>
        <g transform="matrix(1,0,0,1,-105.032,8.86321)">
            <g transform="matrix(-1.37408e-18,0.0224405,0.260362,1.59426e-17,6247.16,1777.25)">
                <rect x="3906.3" y="337.828" width="2631.63" height="589.729" style="fill:rgb(213,1,255);fill-opacity:0.7;"/>
            </g>
        </g>
    </g>
</svg>
